<svg width="20" height="20" viewBox="0 0 20 20" fill="none" xmlns="http://www.w3.org/2000/svg">
<g clip-path="url(#clip0_20_780)">
<path d="M10.0001 6.95551C9.21608 6.9549 8.46397 7.26602 7.90932 7.82008C7.35467 8.37414 7.04292 9.12594 7.0426 9.90992C7.04215 10.6939 7.35342 11.4459 7.90764 12.0004C8.46186 12.5549 9.21366 12.8666 9.99764 12.8668C10.7816 12.8669 11.5336 12.5557 12.088 12.0013C12.6424 11.447 12.9539 10.6952 12.9539 9.91117C12.9534 9.12762 12.6422 8.37644 12.0883 7.82238C11.5345 7.26816 10.7835 6.95644 10.0001 6.95555L10.0001 6.95551ZM10.0001 11.225C9.65079 11.2255 9.31585 11.0873 9.06866 10.8405C8.82162 10.5939 8.68276 10.2591 8.68246 9.91005C8.68231 9.56092 8.82101 9.22598 9.0679 8.97911C9.31478 8.73222 9.64973 8.59352 9.99883 8.59382C10.348 8.59397 10.6827 8.73283 10.9293 8.98002C11.176 9.22706 11.3143 9.56213 11.3138 9.91127C11.3134 10.2595 11.1748 10.5935 10.9285 10.8398C10.6821 11.0861 10.3483 11.2246 10 11.2251L10.0001 11.225Z" fill="black"/>
<path d="M17.4711 7.50745L18.2255 6.66561C18.4208 6.44711 18.4849 6.14116 18.3933 5.86284C18.3018 5.58437 18.0688 5.37608 17.7819 5.31612C17.4952 5.25615 17.1981 5.35381 17.0028 5.57216L16.2739 6.38119V6.38134C15.7222 5.93275 15.1242 5.54423 14.49 5.22243L14.982 4.31134V4.31119C15.0874 4.05911 15.0603 3.77119 14.9095 3.54322C14.7589 3.3151 14.5047 3.17716 14.2314 3.17518C13.9581 3.17319 13.7019 3.30747 13.548 3.53315L12.9666 4.60463C12.2681 4.39269 11.5482 4.25826 10.8202 4.20377V3.16877C10.8202 2.87581 10.6638 2.6051 10.4102 2.45862C10.1564 2.31213 9.84375 2.31213 9.59016 2.45862C9.33641 2.6051 9.18016 2.87581 9.18016 3.16877V4.20194C8.452 4.25641 7.73227 4.39084 7.03356 4.6028L6.45219 3.53315C6.31288 3.27543 6.04661 3.11155 5.75364 3.10315C5.46082 3.09491 5.18571 3.24368 5.03203 3.49316C4.87853 3.7428 4.86968 4.05531 5.00899 4.31301L5.50095 5.2241C4.86696 5.54606 4.2688 5.93457 3.71704 6.38316L2.98814 5.57414V5.57399C2.79282 5.35564 2.49587 5.25798 2.20903 5.31795C1.92232 5.37791 1.68915 5.5862 1.59778 5.86466C1.50623 6.14298 1.57017 6.44892 1.76548 6.66744L2.52903 7.50744C1.95911 8.12298 1.46915 8.8081 1.07122 9.54646C0.957542 9.77611 0.957542 10.0457 1.07122 10.2754C1.18231 10.4959 3.83001 15.6492 10.0001 15.6492C16.17 15.6493 18.8236 10.4961 18.929 10.2754C19.0427 10.0457 19.0427 9.77611 18.929 9.54646C18.5311 8.8081 18.0413 8.12298 17.4712 7.50744L17.4711 7.50745ZM10 14.0094C5.68323 14.0094 3.41643 10.9882 2.74573 9.91136C3.41819 8.84706 5.71233 5.8094 10 5.8094C11.0335 5.80238 12.0592 5.98778 13.0249 6.35612L13.0979 6.38527H13.0977C14.068 6.77467 14.9572 7.34124 15.72 8.05624C15.7454 8.08539 15.7709 8.11636 15.8001 8.14368C15.8292 8.17099 15.8402 8.17282 15.8584 8.18747L15.8585 8.18732C16.3915 8.70368 16.8601 9.28243 17.2542 9.91126C16.5819 10.9736 14.2878 14.0093 9.99992 14.0093L10 14.0094Z" fill="black"/>
</g>
<defs>
<clipPath id="clip0_20_780">
<rect width="20" height="20" fill="white"/>
</clipPath>
</defs>
</svg>
