<svg width="32" height="32" viewBox="0 0 32 32" fill="none" xmlns="http://www.w3.org/2000/svg">
<g clip-path="url(#clip0_10_237)">
<path d="M0 0H32V32H0V0Z" fill="#0077FF"/>
<path fill-rule="evenodd" clip-rule="evenodd" d="M8.07133 8.62219C7.11133 9.75997 7.11133 11.4666 7.11133 14.9155V17.0666C7.11133 20.4978 7.11133 22.2222 8.07133 23.36C8.23133 23.5733 8.42688 23.7511 8.60466 23.9111C9.76022 24.8711 11.4847 24.8711 14.9158 24.8711H17.0669C20.498 24.8711 22.2224 24.8711 23.3602 23.9111C23.5736 23.7511 23.7513 23.5555 23.9113 23.3778C24.8713 22.2222 24.8713 20.4978 24.8713 17.0666V14.9333C24.8713 11.5022 24.8713 9.77775 23.9113 8.63997C23.7513 8.42664 23.5558 8.24886 23.378 8.07108C22.2224 7.11108 20.498 7.11108 17.0669 7.11108H14.9335C11.5024 7.11108 9.778 7.11108 8.64022 8.05331C8.42688 8.23108 8.24911 8.40886 8.08911 8.62219H8.07133ZM10.1335 13.2978C10.2224 14.5244 10.6313 15.8578 11.2002 16.7644C12.2491 18.4889 13.8491 19.3778 16.178 19.5022L16.5691 19.5378V16.9778L16.8535 17.0133C17.9735 17.1555 19.1113 18.0444 19.5913 19.1822L19.7336 19.5378H20.0891C20.6758 19.5378 21.778 19.5733 21.778 19.5378C21.56 18.7967 21.1961 18.1067 20.7076 17.5083C20.2191 16.9099 19.616 16.4152 18.9335 16.0533L18.7913 15.9644L19.0224 15.7866C20.1664 15.0633 20.9926 13.9321 21.3336 12.6222V12.4444H19.4669L19.3247 12.8C18.9691 13.6889 18.1336 14.6489 17.4047 15.0044C17.138 15.1289 16.8713 15.2 16.5691 15.2355V12.4444H14.8447V17.3689L14.578 17.28C13.8669 17.0133 13.1913 16.3555 12.7824 15.5733C12.4269 14.9155 12.178 13.8666 12.1069 12.9422L12.0891 12.4444H10.0802L10.1513 13.2978H10.1335Z" fill="white"/>
</g>
<defs>
<clipPath id="clip0_10_237">
<rect width="32" height="32" fill="white"/>
</clipPath>
</defs>
</svg>
